<svg width="24" height="24" viewBox="0 0 24 24" fill="none" xmlns="http://www.w3.org/2000/svg">
<path d="M11.9993 12.4982L16.4599 8.27071C16.6296 8.09728 16.8588 8 17.0976 8C17.3365 8 17.5657 8.09728 17.7354 8.27071C17.8192 8.35587 17.8858 8.45738 17.9312 8.56933C17.9766 8.68128 18 8.80143 18 8.9228C18 9.04417 17.9766 9.16432 17.9312 9.27627C17.8858 9.38822 17.8192 9.48973 17.7354 9.57489L12.6384 14.7297C12.4683 14.9029 12.239 15 12 15C11.761 15 11.5317 14.9029 11.3616 14.7297L6.26458 9.57489C6.18078 9.48973 6.11424 9.38822 6.06882 9.27627C6.02339 9.16432 6 9.04417 6 8.9228C6 8.80143 6.02339 8.68128 6.06882 8.56933C6.11424 8.45738 6.18078 8.35587 6.26458 8.27071C6.43431 8.09728 6.66351 8 6.90236 8C7.14121 8 7.37041 8.09728 7.54013 8.27071L11.9993 12.4982Z" fill="#1C1B1B"/>
</svg>
