<svg width="24" height="24" viewBox="0 0 24 24" fill="none" xmlns="http://www.w3.org/2000/svg">
<path d="M6.84966 21.2344H16.69C19.2816 21.2344 20.3144 19.6476 20.4365 17.7133L20.9248 9.95743C21.0562 7.92926 19.4412 6.21095 17.4036 6.21095C16.8309 6.21095 16.3051 5.88231 16.0421 5.37527L15.3661 4.01376C14.9342 3.1593 13.8074 2.45508 12.8497 2.45508H10.6994C9.73229 2.45508 8.60552 3.1593 8.1736 4.01376L7.49754 5.37527C7.23463 5.88231 6.70881 6.21095 6.13604 6.21095C4.09848 6.21095 2.48346 7.92926 2.61491 9.95743L3.10318 17.7133C3.21585 19.6476 4.25811 21.2344 6.84966 21.2344Z" stroke="#111010" stroke-width="1.40845" stroke-linecap="round" stroke-linejoin="round"/>
<path d="M10.3613 8.08887H13.1782" stroke="#111010" stroke-width="1.40845" stroke-linecap="round" stroke-linejoin="round"/>
<path d="M11.7694 17.4783C13.4502 17.4783 14.8211 16.1074 14.8211 14.4266C14.8211 12.7459 13.4502 11.375 11.7694 11.375C10.0887 11.375 8.71777 12.7459 8.71777 14.4266C8.71777 16.1074 10.0887 17.4783 11.7694 17.4783Z" stroke="#111010" stroke-width="1.40845" stroke-linecap="round" stroke-linejoin="round"/>
</svg>
