<svg width="24" height="25" viewBox="0 0 24 25" fill="none" xmlns="http://www.w3.org/2000/svg">
<path d="M18.6704 2.5H16.7704C14.5904 2.5 13.4404 3.65 13.4404 5.83V7.73C13.4404 9.91 14.5904 11.06 16.7704 11.06H18.6704C20.8504 11.06 22.0004 9.91 22.0004 7.73V5.83C22.0004 3.65 20.8504 2.5 18.6704 2.5Z" fill="#BD6533"/>
<path d="M7.24 13.9297H5.34C3.15 13.9297 2 15.0797 2 17.2597V19.1597C2 21.3497 3.15 22.4997 5.33 22.4997H7.23C9.41 22.4997 10.56 21.3497 10.56 19.1697V17.2697C10.57 15.0797 9.42 13.9297 7.24 13.9297Z" fill="#BD6533"/>
<path d="M6.29 11.08C8.6593 11.08 10.58 9.1593 10.58 6.79C10.58 4.4207 8.6593 2.5 6.29 2.5C3.9207 2.5 2 4.4207 2 6.79C2 9.1593 3.9207 11.08 6.29 11.08Z" fill="#BD6533"/>
<path d="M17.7099 22.4999C20.0792 22.4999 21.9999 20.5792 21.9999 18.2099C21.9999 15.8406 20.0792 13.9199 17.7099 13.9199C15.3406 13.9199 13.4199 15.8406 13.4199 18.2099C13.4199 20.5792 15.3406 22.4999 17.7099 22.4999Z" fill="#BD6533"/>
</svg>
