<svg width="20" height="20" viewBox="0 0 20 20" fill="none" xmlns="http://www.w3.org/2000/svg">
<path d="M9.99984 18.9587C5.05817 18.9587 1.0415 14.942 1.0415 10.0003C1.0415 5.05866 5.05817 1.04199 9.99984 1.04199C14.9415 1.04199 18.9582 5.05866 18.9582 10.0003C18.9582 14.942 14.9415 18.9587 9.99984 18.9587ZM9.99984 2.29199C5.74984 2.29199 2.2915 5.75033 2.2915 10.0003C2.2915 14.2503 5.74984 17.7087 9.99984 17.7087C14.2498 17.7087 17.7082 14.2503 17.7082 10.0003C17.7082 5.75033 14.2498 2.29199 9.99984 2.29199Z" fill="white"/>
<path d="M8.8167 12.9837C8.65003 12.9837 8.4917 12.917 8.37503 12.8003L6.0167 10.442C5.77503 10.2003 5.77503 9.80033 6.0167 9.55866C6.25837 9.31699 6.65837 9.31699 6.90003 9.55866L8.8167 11.4753L13.1 7.19199C13.3417 6.95033 13.7417 6.95033 13.9834 7.19199C14.225 7.43366 14.225 7.83366 13.9834 8.07533L9.25837 12.8003C9.1417 12.917 8.98337 12.9837 8.8167 12.9837Z" fill="white"/>
</svg>
