<svg width="62" height="62" viewBox="0 0 62 62" fill="none" xmlns="http://www.w3.org/2000/svg">
<path d="M53.887 12.026C53.8407 11.6935 53.6982 11.3817 53.4772 11.1291C53.2561 10.8764 52.966 10.6939 52.6426 10.6039L31.4616 4.71343C31.1596 4.62938 30.8404 4.62938 30.5385 4.71343L9.35741 10.6039C9.03396 10.6938 8.74385 10.8764 8.52277 11.129C8.30169 11.3817 8.15928 11.6935 8.11305 12.026C7.9902 12.9094 5.18757 33.7818 12.3761 44.1652C19.5562 54.5362 30.1483 57.1939 30.5956 57.3021C30.8614 57.3664 31.1386 57.3664 31.4044 57.3021C31.8519 57.1939 42.4441 54.5362 49.6239 44.1652C56.8124 33.782 54.0098 12.9096 53.887 12.026ZM44.6591 24.2115L30.2115 38.6591C29.8753 38.9953 29.4344 39.1636 28.9937 39.1636C28.5531 39.1636 28.1122 38.9955 27.776 38.6591L18.8432 29.7263C18.6832 29.5664 18.5563 29.3766 18.4697 29.1676C18.3831 28.9587 18.3385 28.7347 18.3385 28.5086C18.3385 28.2824 18.3831 28.0584 18.4697 27.8495C18.5563 27.6406 18.6832 27.4507 18.8432 27.2908L20.6168 25.5172C20.9398 25.1942 21.3778 25.0128 21.8346 25.0128C22.2913 25.0128 22.7293 25.1942 23.0523 25.5172L28.9937 31.4586L40.45 20.0022C40.6098 19.8422 40.7997 19.7153 41.0086 19.6287C41.2175 19.5421 41.4415 19.4975 41.6677 19.4975C41.8939 19.4975 42.1178 19.5421 42.3268 19.6287C42.5357 19.7153 42.7255 19.8422 42.8854 20.0022L44.6591 21.7758C44.819 21.9358 44.9459 22.1256 45.0324 22.3346C45.119 22.5435 45.1635 22.7675 45.1635 22.9937C45.1635 23.2198 45.119 23.4438 45.0324 23.6528C44.9459 23.8617 44.819 24.0516 44.6591 24.2115Z" fill="white"/>
</svg>
