<svg width="24" height="24" viewBox="0 0 24 24" fill="none" xmlns="http://www.w3.org/2000/svg">
<path d="M11.9996 13.2L7.89555 9.43081C7.73939 9.27619 7.52851 9.18945 7.30875 9.18945C7.08899 9.18945 6.87811 9.27619 6.72195 9.43081C6.64485 9.50674 6.58362 9.59725 6.54183 9.69706C6.50004 9.79687 6.47852 9.904 6.47852 10.0122C6.47852 10.1204 6.50004 10.2276 6.54183 10.3274C6.58362 10.4272 6.64485 10.5177 6.72195 10.5936L11.4116 15.1896C11.5681 15.344 11.7791 15.4306 11.999 15.4306C12.2188 15.4306 12.4298 15.344 12.5864 15.1896L17.276 10.5936C17.3531 10.5177 17.4143 10.4272 17.4561 10.3274C17.4979 10.2276 17.5194 10.1204 17.5194 10.0122C17.5194 9.904 17.4979 9.79687 17.4561 9.69706C17.4143 9.59725 17.3531 9.50674 17.276 9.43081C17.1198 9.27619 16.9089 9.18945 16.6892 9.18945C16.4694 9.18945 16.2585 9.27619 16.1024 9.43081L11.9996 13.2Z" fill="#1C1B1B"/>
</svg>
