<svg width="28" height="24" viewBox="0 0 28 24" fill="none" xmlns="http://www.w3.org/2000/svg">
<g clip-path="url(#clip0_507_4289)">
<path fill-rule="evenodd" clip-rule="evenodd" d="M-1.75 0H29.75V24H-1.75V0Z" fill="#0C590B"/>
<path fill-rule="evenodd" clip-rule="evenodd" d="M-1.75 0H6.14633V24H-1.75V0Z" fill="white"/>
<path fill-rule="evenodd" clip-rule="evenodd" d="M18.7045 10.566L17.4262 10.2587L16.754 11.5387L16.6148 10.0543L15.3418 9.71916L16.534 9.10913L16.4195 7.62207L17.2956 8.72935L18.4977 8.14538L17.847 9.43979L18.7045 10.566Z" fill="white"/>
<path fill-rule="evenodd" clip-rule="evenodd" d="M19.1864 14.348C18.0517 17.2055 15.0735 18.4537 12.5661 17.1263C10.0583 15.7985 8.96586 12.3952 10.1277 9.52918C10.7202 8.06743 11.6899 7.0629 13.0587 6.51465C12.9013 6.6668 12.7455 6.82463 12.5747 7.02596C10.8066 9.11148 10.8525 12.4443 12.6773 14.465C14.5021 16.4858 17.4184 16.4333 19.1864 14.3478L19.1864 14.348Z" fill="white"/>
</g>
<defs>
<clipPath id="clip0_507_4289">
<rect width="28" height="24" fill="white"/>
</clipPath>
</defs>
</svg>
