<svg width="7" height="12" viewBox="0 0 7 12" fill="none" xmlns="http://www.w3.org/2000/svg">
<path d="M4.4982 6.00065L0.270707 1.54013C0.0972844 1.37041 0 1.14121 0 0.902359C0 0.663508 0.0972844 0.43431 0.270707 0.264583C0.355868 0.180786 0.457377 0.114238 0.569327 0.0688152C0.681278 0.023392 0.801432 0 0.9228 0C1.04417 0 1.16432 0.023392 1.27627 0.0688152C1.38822 0.114238 1.48973 0.180786 1.57489 0.264583L6.72972 5.36157C6.9029 5.53169 7 5.76104 7 6C7 6.23896 6.9029 6.46832 6.72972 6.63843L1.57489 11.7354C1.48973 11.8192 1.38822 11.8858 1.27627 11.9312C1.16432 11.9766 1.04417 12 0.9228 12C0.801432 12 0.681278 11.9766 0.569327 11.9312C0.457377 11.8858 0.355868 11.8192 0.270707 11.7354C0.0972844 11.5657 0 11.3365 0 11.0976C0 10.8588 0.0972844 10.6296 0.270707 10.4599L4.4982 6.00065Z" fill="#6F7384"/>
</svg>
