<svg width="21" height="20" viewBox="0 0 21 20" fill="none" xmlns="http://www.w3.org/2000/svg">
<path d="M20.2402 9.07001C20.1902 8.56001 19.7602 8.17999 19.2502 8.17999H11.7002C11.1502 8.17999 10.7002 8.62999 10.7002 9.17999V10.89C10.7002 11.44 11.1502 11.89 11.7002 11.89H16.2102C16.1002 12.81 15.5002 14.2 14.1702 15.13C13.3202 15.72 12.1902 16.13 10.7002 16.13C10.6302 16.13 10.5702 16.13 10.5002 16.12C7.9502 16.04 5.7902 14.33 5.0102 11.98C4.8002 11.35 4.6802 10.69 4.6802 10C4.6802 9.31 4.8002 8.63999 5.0002 8.01999C5.0602 7.83999 5.1302 7.66001 5.2102 7.48001C6.1302 5.41001 8.1402 3.95 10.5002 3.88C10.5602 3.87 10.6302 3.87 10.7002 3.87C12.1302 3.87 13.2002 4.33999 13.9502 4.85999C14.3402 5.12999 14.8602 5.06999 15.2002 4.73999L16.5902 3.38C17.0302 2.95 16.9902 2.21999 16.4902 1.85999C14.9002 0.689985 12.9602 0 10.7002 0C10.6302 0 10.5702 9.76585e-06 10.5002 0.0100098C6.6702 0.0800098 3.3802 2.30001 1.7702 5.51001C1.0902 6.87001 0.700195 8.39 0.700195 10C0.700195 11.61 1.0902 13.13 1.7702 14.49H1.7802C3.3902 17.7 6.6802 19.92 10.5002 19.99C10.5702 20 10.6302 20 10.7002 20C13.4002 20 15.6702 19.11 17.3202 17.58C19.2102 15.83 20.3002 13.27 20.3002 10.22C20.3002 9.79 20.2802 9.42001 20.2402 9.07001Z" fill="#BD6533"/>
</svg>
