<svg width="12" height="10" viewBox="0 0 12 10" fill="none" xmlns="http://www.w3.org/2000/svg">
<path d="M6 9.8248C5.845 9.8248 5.695 9.8048 5.57 9.7598C3.66 9.1048 0.625 6.7798 0.625 3.3448C0.625 1.5948 2.04 0.174805 3.78 0.174805C4.625 0.174805 5.415 0.504805 6 1.0948C6.585 0.504805 7.375 0.174805 8.22 0.174805C9.96 0.174805 11.375 1.5998 11.375 3.3448C11.375 6.7848 8.34 9.1048 6.43 9.7598C6.305 9.8048 6.155 9.8248 6 9.8248ZM3.78 0.924805C2.455 0.924805 1.375 2.0098 1.375 3.3448C1.375 6.7598 4.66 8.6598 5.815 9.0548C5.905 9.0848 6.1 9.0848 6.19 9.0548C7.34 8.6598 10.63 6.7648 10.63 3.3448C10.63 2.0098 9.55 0.924805 8.225 0.924805C7.465 0.924805 6.76 1.2798 6.305 1.8948C6.165 2.0848 5.845 2.0848 5.705 1.8948C5.24 1.2748 4.54 0.924805 3.78 0.924805Z" fill="white"/>
</svg>
