<svg width="20" height="21" viewBox="0 0 20 21" fill="none" xmlns="http://www.w3.org/2000/svg">
<path d="M18.0402 5.31969L12.2802 1.28969C10.7102 0.189694 8.30023 0.249694 6.79023 1.41969L1.78023 5.32969C0.780234 6.10969 -0.00976562 7.70969 -0.00976562 8.96969V15.8697C-0.00976562 18.4197 2.06023 20.4997 4.61023 20.4997H15.3902C17.9402 20.4997 20.0102 18.4297 20.0102 15.8797V9.09969C20.0102 7.74969 19.1402 6.08969 18.0402 5.31969ZM10.7502 16.4997C10.7502 16.9097 10.4102 17.2497 10.0002 17.2497C9.59023 17.2497 9.25023 16.9097 9.25023 16.4997V13.4997C9.25023 13.0897 9.59023 12.7497 10.0002 12.7497C10.4102 12.7497 10.7502 13.0897 10.7502 13.4997V16.4997Z" fill="#BD6533"/>
</svg>
