<svg width="62" height="18" viewBox="0 0 62 18" fill="none" xmlns="http://www.w3.org/2000/svg">
<path fill-rule="evenodd" clip-rule="evenodd" d="M48.1498 3.49959C46.6498 3.49959 45.4498 3.89959 44.4498 4.09959L44.1498 6.39959C44.6498 6.19959 46.0498 5.79959 47.2498 5.69959C48.4498 5.69959 49.1498 5.89959 48.9498 6.99959C45.3498 6.99959 42.9498 7.69959 42.4498 10.0996C41.7498 14.0996 46.1498 14.1996 47.8498 12.3996L47.6498 13.4996H50.8498L52.2498 6.99959C52.7498 4.29959 50.3498 3.39959 48.1498 3.49959ZM48.3498 10.1996C48.1498 10.9996 47.4498 11.2996 46.6498 11.3996C45.9498 11.3996 45.3498 10.9996 45.7498 10.1996C46.1498 9.59959 47.0498 9.59959 47.7498 9.59959H48.5498C48.4498 9.49959 48.3498 9.89959 48.3498 10.1996Z" fill="#32A6CE"/>
<path fill-rule="evenodd" clip-rule="evenodd" d="M44.1498 6.39961C44.6498 6.19961 46.0498 5.79961 47.2498 5.69961C48.4498 5.69961 49.1498 5.89961 48.9498 6.99961C45.3498 6.99961 42.9498 7.69961 42.4498 10.0996C41.7498 14.0996 46.1498 14.1996 47.8498 12.3996L47.6498 13.4996H50.8498L52.2498 6.99961C52.8498 4.29961 50.3498 3.59961 48.1498 3.59961M48.3498 10.1996C48.1498 10.9996 47.4498 11.2996 46.6498 11.3996C45.9498 11.3996 45.3498 10.9996 45.7498 10.1996C46.1498 9.59961 47.0498 9.59961 47.7498 9.59961H48.5498C48.4498 9.49961 48.3498 9.89961 48.3498 10.1996Z" fill="#1A80AD"/>
<path fill-rule="evenodd" clip-rule="evenodd" d="M54.9496 0.5L52.3496 13.5H55.5496L58.2496 0.5H54.9496Z" fill="#32A6CE"/>
<path fill-rule="evenodd" clip-rule="evenodd" d="M57.2496 0.5L52.3496 13.5H55.5496L58.2496 0.5H54.9496H57.2496Z" fill="#1A80AD"/>
<path fill-rule="evenodd" clip-rule="evenodd" d="M40.0498 0.5H34.1498L31.5498 13.5H35.0498L35.9498 9.5H38.4498C40.8498 9.5 42.8498 8.1 43.3498 5.6C43.8498 2.7 41.7498 0.5 40.0498 0.5ZM39.9498 5C39.7498 5.9 38.8498 6.5 37.9498 6.5H36.3498L37.0498 3.5H38.7498C39.6498 3.5 40.1498 4.1 39.9498 5Z" fill="#32A6CE"/>
<path fill-rule="evenodd" clip-rule="evenodd" d="M40.0502 0.5H36.0502L31.4502 13.5H34.9502L35.8502 9.5H38.3502C40.7502 9.5 42.7502 8.1 43.2502 5.6C43.8502 2.7 41.7502 0.5 40.0502 0.5ZM39.9502 5C39.7502 5.9 38.8502 6.5 37.9502 6.5H36.3502L37.0502 3.5H38.7502C39.6502 3.5 40.1502 4.1 39.9502 5Z" fill="#1A80AD"/>
<path fill-rule="evenodd" clip-rule="evenodd" d="M16.9494 3.49959C15.4494 3.49959 14.2494 3.89959 13.3494 4.09959L13.0494 6.39959C13.4494 6.19959 14.9494 5.79959 16.1494 5.69959C17.3494 5.69959 18.0494 5.89959 17.8494 6.99959C14.3494 6.99959 11.9494 7.69959 11.4494 10.0996C10.7494 14.0996 15.0494 14.1996 16.7494 12.3996L16.5494 13.4996H19.7494L21.1494 6.99959C21.6494 4.29959 19.1494 3.39959 16.9494 3.49959ZM17.2494 10.1996C17.0494 10.9996 16.3494 11.2996 15.5494 11.3996C14.8494 11.3996 14.2494 10.9996 14.7494 10.1996C15.1494 9.59959 16.0494 9.59959 16.6494 9.59959H17.4494C17.3494 9.49959 17.2494 9.89959 17.2494 10.1996Z" fill="#21789E"/>
<path fill-rule="evenodd" clip-rule="evenodd" d="M13.15 6.39961C13.55 6.19961 15.05 5.79961 16.25 5.69961C17.45 5.69961 18.15 5.89961 17.95 6.99961C14.45 6.99961 12.05 7.69961 11.55 10.0996C10.85 14.0996 15.15 14.1996 16.85 12.3996L16.55 13.4996H19.75L21.15 6.99961C21.75 4.29961 19.25 3.59961 17.05 3.59961M17.25 10.1996C17.05 10.9996 16.35 11.2996 15.55 11.3996C14.85 11.3996 14.25 10.9996 14.75 10.1996C15.15 9.59961 16.05 9.59961 16.65 9.59961H17.45C17.35 9.49961 17.25 9.89961 17.25 10.1996Z" fill="#1A5B80"/>
<path fill-rule="evenodd" clip-rule="evenodd" d="M22.4502 3.5H25.6502L26.1502 9.1L29.3502 3.5H32.6502L25.0502 17.5H21.4502L23.7502 13.3L22.4502 3.5Z" fill="#21789E"/>
<path fill-rule="evenodd" clip-rule="evenodd" d="M25.6502 3.7L26.1502 9.2L29.3502 3.5H32.6502L25.0502 17.5H21.4502L23.7502 13.4" fill="#1A5B80"/>
<path fill-rule="evenodd" clip-rule="evenodd" d="M9.0502 0.5H3.0502L0.450195 13.5H3.9502L4.8502 9.5H7.3502C9.7502 9.5 11.7502 8.1 12.2502 5.6C12.8502 2.7 10.7502 0.5 9.0502 0.5ZM8.9502 5C8.7502 5.9 7.85019 6.5 6.95019 6.5H5.3502L6.0502 3.5H7.7502C8.6502 3.5 9.1502 4.1 8.9502 5Z" fill="#21789E"/>
<path fill-rule="evenodd" clip-rule="evenodd" d="M9.0502 0.5H6.3502L0.450195 13.5H3.9502L4.8502 9.5H7.3502C9.7502 9.5 11.7502 8.1 12.2502 5.6C12.8502 2.7 10.7502 0.5 9.0502 0.5ZM8.9502 5C8.7502 5.9 7.85019 6.5 6.95019 6.5H5.3502L6.0502 3.5H7.7502C8.6502 3.5 9.1502 4.1 8.9502 5Z" fill="#1A5B80"/>
<path fill-rule="evenodd" clip-rule="evenodd" d="M16.35 7C13.65 7.2 11.85 8 11.45 10C10.75 14 15.05 14.1 16.75 12.3L16.55 13.5H19.75L20.25 11.1L16.35 7ZM17.25 10.2C17.05 11 16.35 11.3 15.55 11.4C14.85 11.4 14.25 11 14.75 10.2C15.15 9.6 16.05 9.6 16.65 9.6H17.45C17.35 9.5 17.25 9.9 17.25 10.2ZM26.35 9L26.15 9.3L28.25 11.3L32.65 3.5H29.35L26.35 9ZM3.95 13.5L4.85 9.5L0.75 13.5H3.95Z" fill="#06435E"/>
<path fill-rule="evenodd" clip-rule="evenodd" d="M34.95 13.5L35.85 9.3V9.4L31.75 13.5H34.95ZM47.45 7C44.75 7.2 42.95 8 42.55 10C41.85 14 46.25 14.1 47.95 12.3L47.65 13.5H50.85L51.35 11.1L47.45 7ZM48.35 10.2C48.15 11 47.45 11.3 46.65 11.4C45.95 11.4 45.35 11 45.75 10.2C46.15 9.6 47.05 9.6 47.75 9.6H48.55C48.45 9.5 48.35 9.9 48.35 10.2ZM54.65 7.6L52.35 13.5H55.55L56.45 9.5L54.65 7.6Z" fill="#2273AA"/>
<path d="M58.9502 2.60039V1.20039H58.4502V1.00039H59.7502V1.20039H59.2502V2.60039H58.9502ZM59.9502 2.60039V1.00039H60.2502L60.6502 2.10039C60.6502 2.20039 60.7502 2.30039 60.7502 2.30039C60.7502 2.20039 60.7502 2.20039 60.8502 2.00039L61.2502 0.900391H61.5502V2.50039H61.3502V1.10039L60.8502 2.50039H60.5502L60.0502 1.10039V2.50039H59.9502V2.60039Z" fill="#32A6CE"/>
</svg>
