<svg width="25" height="25" viewBox="0 0 25 25" fill="none" xmlns="http://www.w3.org/2000/svg">
<path d="M12.6605 12.12C12.6305 12.12 12.6105 12.12 12.5805 12.12C12.5305 12.11 12.4605 12.11 12.4005 12.12C9.50055 12.03 7.31055 9.75 7.31055 6.94C7.31055 4.08 9.64055 1.75 12.5005 1.75C15.3605 1.75 17.6905 4.08 17.6905 6.94C17.6805 9.75 15.4805 12.03 12.6905 12.12C12.6805 12.12 12.6705 12.12 12.6605 12.12ZM12.5005 3.25C10.4705 3.25 8.81055 4.91 8.81055 6.94C8.81055 8.94 10.3705 10.55 12.3605 10.62C12.4105 10.61 12.5505 10.61 12.6805 10.62C14.6405 10.53 16.1805 8.92 16.1905 6.94C16.1905 4.91 14.5305 3.25 12.5005 3.25Z" fill="#6F7384"/>
<path d="M12.6696 23.05C10.7096 23.05 8.73961 22.55 7.24961 21.55C5.85961 20.63 5.09961 19.37 5.09961 18C5.09961 16.63 5.85961 15.36 7.24961 14.43C10.2496 12.44 15.1096 12.44 18.0896 14.43C19.4696 15.35 20.2396 16.61 20.2396 17.98C20.2396 19.35 19.4796 20.62 18.0896 21.55C16.5896 22.55 14.6296 23.05 12.6696 23.05ZM8.07961 15.69C7.11961 16.33 6.59961 17.15 6.59961 18.01C6.59961 18.86 7.12961 19.68 8.07961 20.31C10.5696 21.98 14.7696 21.98 17.2596 20.31C18.2196 19.67 18.7396 18.85 18.7396 17.99C18.7396 17.14 18.2096 16.32 17.2596 15.69C14.7696 14.03 10.5696 14.03 8.07961 15.69Z" fill="#6F7384"/>
</svg>
