<svg width="25" height="24" viewBox="0 0 25 24" fill="none" xmlns="http://www.w3.org/2000/svg">
<path d="M12.4994 13.2999C12.3694 13.2999 12.2394 13.2699 12.1194 13.1999L3.28936 8.0899C2.92936 7.8799 2.80934 7.41987 3.01934 7.05987C3.22934 6.69987 3.67934 6.57985 4.04934 6.78985L12.4994 11.6799L20.8993 6.81988C21.2593 6.60988 21.7193 6.7399 21.9293 7.0899C22.1393 7.4499 22.0094 7.90987 21.6594 8.11987L12.8894 13.1999C12.7594 13.2599 12.6294 13.2999 12.4994 13.2999Z" fill="#1C1B1B"/>
<path d="M12.5 22.36C12.09 22.36 11.75 22.02 11.75 21.61V12.54C11.75 12.13 12.09 11.79 12.5 11.79C12.91 11.79 13.25 12.13 13.25 12.54V21.61C13.25 22.02 12.91 22.36 12.5 22.36Z" fill="#1C1B1B"/>
<path d="M12.5006 22.75C11.6206 22.75 10.7506 22.56 10.0606 22.18L4.72061 19.21C3.27061 18.41 2.14062 16.48 2.14062 14.82V9.16998C2.14062 7.50998 3.27061 5.59002 4.72061 4.78002L10.0606 1.82C11.4306 1.06 13.5706 1.06 14.9406 1.82L20.2806 4.78997C21.7306 5.58997 22.8606 7.51999 22.8606 9.17999V14.83C22.8606 16.49 21.7306 18.41 20.2806 19.22L14.9406 22.18C14.2506 22.56 13.3806 22.75 12.5006 22.75ZM12.5006 2.74999C11.8706 2.74999 11.2506 2.88 10.7906 3.13L5.45062 6.09997C4.49062 6.63997 3.64062 8.06999 3.64062 9.17999V14.83C3.64062 15.93 4.49062 17.37 5.45062 17.91L10.7906 20.88C11.7006 21.39 13.3006 21.39 14.2106 20.88L19.5506 17.91C20.5106 17.37 21.3606 15.94 21.3606 14.83V9.17999C21.3606 8.07999 20.5106 6.63997 19.5506 6.09997L14.2106 3.13C13.7506 2.88 13.1306 2.74999 12.5006 2.74999Z" fill="#1C1B1B"/>
<path d="M17.5002 13.9905C17.0902 13.9905 16.7502 13.6505 16.7502 13.2405V10.0206L7.63018 4.76055C7.27018 4.55055 7.15016 4.09054 7.36016 3.74054C7.57016 3.38054 8.02018 3.26052 8.38018 3.47052L17.8702 8.95056C18.1002 9.08056 18.2502 9.33052 18.2502 9.60052V13.2606C18.2502 13.6506 17.9102 13.9905 17.5002 13.9905Z" fill="#1C1B1B"/>
</svg>
