<svg width="25" height="24" viewBox="0 0 25 24" fill="none" xmlns="http://www.w3.org/2000/svg">
<path d="M20.6004 6.94C20.6004 7.48 20.3104 7.97 19.8504 8.22L18.1104 9.16L16.6304 9.95L13.5604 11.61C13.2304 11.79 12.8704 11.88 12.5004 11.88C12.1304 11.88 11.7704 11.79 11.4404 11.61L5.15039 8.22C4.69039 7.97 4.40039 7.48 4.40039 6.94C4.40039 6.4 4.69039 5.91 5.15039 5.66L7.12039 4.6L8.69039 3.75L11.4404 2.27C12.1004 1.91 12.9004 1.91 13.5604 2.27L19.8504 5.66C20.3104 5.91 20.6004 6.4 20.6004 6.94Z" fill="#21D4B4"/>
<path d="M10.3997 12.7901L4.54973 9.87014C4.09973 9.64014 3.57973 9.67014 3.14973 9.93014C2.71973 10.1901 2.46973 10.6501 2.46973 11.1501V16.6801C2.46973 17.6401 2.99973 18.5001 3.85973 18.9301L9.70973 21.8501C9.90973 21.9501 10.1297 22.0001 10.3497 22.0001C10.6097 22.0001 10.8697 21.9301 11.0997 21.7801C11.5297 21.5201 11.7797 21.0601 11.7797 20.5601V15.0301C11.7897 14.0801 11.2597 13.2201 10.3997 12.7901Z" fill="#21D4B4"/>
<path d="M22.53 11.1496V16.6796C22.53 17.6296 22 18.4896 21.14 18.9196L15.29 21.8496C15.09 21.9496 14.87 21.9996 14.65 21.9996C14.39 21.9996 14.13 21.9296 13.89 21.7796C13.47 21.5196 13.21 21.0596 13.21 20.5596V15.0396C13.21 14.0796 13.74 13.2196 14.6 12.7896L16.75 11.7196L18.25 10.9696L20.45 9.86964C20.9 9.63964 21.42 9.65964 21.85 9.92964C22.27 10.1896 22.53 10.6496 22.53 11.1496Z" fill="#21D4B4"/>
<path d="M18.1101 9.16L16.6301 9.95L7.12012 4.6L8.69012 3.75L17.8701 8.93C17.9701 8.99 18.0501 9.07 18.1101 9.16Z" fill="#21D4B4"/>
<path d="M18.25 10.9697V13.2397C18.25 13.6497 17.91 13.9897 17.5 13.9897C17.09 13.9897 16.75 13.6497 16.75 13.2397V11.7197L18.25 10.9697Z" fill="#21D4B4"/>
</svg>
