<svg width="22" height="14" viewBox="0 0 22 14" fill="none" xmlns="http://www.w3.org/2000/svg">
<path fill-rule="evenodd" clip-rule="evenodd" d="M0.812012 12.1079C0.812012 12.6265 1.2324 13.0469 1.75098 13.0469L20.5303 13.0469C21.0489 13.0469 21.4693 12.6265 21.4693 12.1079C21.4693 11.5893 21.0489 11.1689 20.5303 11.1689L1.75098 11.1689C1.2324 11.1689 0.812012 11.5893 0.812012 12.1079ZM6.44584 6.94355C6.44584 7.46212 6.86623 7.88251 7.38481 7.88251L20.5303 7.88251C21.0489 7.88251 21.4693 7.46212 21.4693 6.94355C21.4693 6.42497 21.0489 6.00458 20.5303 6.00458L7.38481 6.00458C6.86623 6.00458 6.44584 6.42497 6.44584 6.94355ZM4.56791 2.7182C4.04933 2.7182 3.62894 2.29781 3.62894 1.77923C3.62894 1.26065 4.04933 0.840261 4.56791 0.840261L20.5304 0.840261C21.0489 0.840261 21.4693 1.26065 21.4693 1.77923C21.4693 2.29781 21.0489 2.7182 20.5304 2.7182L4.56791 2.7182Z" fill="#BD6533"/>
</svg>
