<svg width="32" height="32" viewBox="0 0 32 32" fill="none" xmlns="http://www.w3.org/2000/svg">
<path d="M21.587 2.66699H10.4137C5.56033 2.66699 2.66699 5.56033 2.66699 10.4137V21.5737C2.66699 26.4403 5.56033 29.3337 10.4137 29.3337H21.5737C26.427 29.3337 29.3203 26.4403 29.3203 21.587V10.4137C29.3337 5.56033 26.4403 2.66699 21.587 2.66699ZM22.3737 12.9337L14.8137 20.4937C14.627 20.6803 14.3737 20.787 14.107 20.787C13.8403 20.787 13.587 20.6803 13.4003 20.4937L9.62699 16.7203C9.24033 16.3337 9.24033 15.6937 9.62699 15.307C10.0137 14.9203 10.6537 14.9203 11.0403 15.307L14.107 18.3737L20.9603 11.5203C21.347 11.1337 21.987 11.1337 22.3737 11.5203C22.7603 11.907 22.7603 12.5337 22.3737 12.9337Z" fill="#BD6533"/>
</svg>
