<svg width="32" height="32" viewBox="0 0 32 32" fill="none" xmlns="http://www.w3.org/2000/svg">
<path d="M20.0003 30.3337H12.0003C4.76033 30.3337 1.66699 27.2403 1.66699 20.0003V12.0003C1.66699 4.76033 4.76033 1.66699 12.0003 1.66699H20.0003C27.2403 1.66699 30.3337 4.76033 30.3337 12.0003V20.0003C30.3337 27.2403 27.2403 30.3337 20.0003 30.3337ZM12.0003 3.66699C5.85366 3.66699 3.66699 5.85366 3.66699 12.0003V20.0003C3.66699 26.147 5.85366 28.3337 12.0003 28.3337H20.0003C26.147 28.3337 28.3337 26.147 28.3337 20.0003V12.0003C28.3337 5.85366 26.147 3.66699 20.0003 3.66699H12.0003Z" fill="#1C1B1B"/>
</svg>
